<svg width="523" height="375" viewBox="0 0 523 375" fill="none" xmlns="http://www.w3.org/2000/svg">
<path d="M269.829 342.387L465.627 237.902C467.044 237.143 468.229 236.046 469.065 234.72C469.901 233.393 470.36 231.882 470.395 230.335C470.431 228.789 470.043 227.26 469.268 225.9C468.494 224.539 467.361 223.394 465.98 222.577L276.17 110.641C274.729 109.792 273.073 109.33 271.378 109.306C269.684 109.282 268.014 109.696 266.547 110.504L59.4259 224.816C58.0093 225.6 56.8337 226.723 56.0165 228.074C55.1994 229.425 54.7693 230.957 54.7693 232.516C54.7693 234.075 55.1994 235.606 56.0165 236.957C56.8337 238.308 58.0093 239.432 59.4259 240.215L244.11 342.213C248.011 344.366 252.435 345.515 256.945 345.546C261.455 345.576 265.896 344.487 269.829 342.387Z" fill="#787C96"/>
<path style="mix-blend-mode:multiply" d="M300.908 219.99C288.657 227.291 273.856 235.737 261.474 245.489L289.951 265.205L349.782 229.356C342.735 226.16 306.452 225.202 300.908 219.99Z" fill="url(#paint0_linear_4_2)"/>
<path style="mix-blend-mode:multiply" d="M187.339 260.739C175.087 268.041 160.286 276.487 147.904 286.239L242.044 336.926L341.99 283.353C334.942 280.144 192.869 265.951 187.339 260.739Z" fill="url(#paint1_linear_4_2)"/>
<path style="mix-blend-mode:multiply" d="M120.094 222.826C107.843 230.128 93.0417 238.573 80.6597 248.325L109.137 268.041L168.968 232.192C161.921 228.996 125.638 228.038 120.094 222.826Z" fill="url(#paint2_linear_4_2)"/>
<path d="M294.305 308.678L282.956 302.484L286.068 299.386L294.815 304.685" fill="#C65517"/>
<path d="M301.509 300.692L288.304 293.714L283.531 298.777L294.305 304.648" fill="#EA6C0F"/>
<path d="M294.305 304.648L301.51 300.692V304.648L294.305 308.678V304.648Z" fill="#FF7C28"/>
<path d="M314.48 298.08L303.131 291.873L306.243 288.776L314.977 294.075" fill="#C65517"/>
<path d="M321.684 290.082L308.465 283.104L303.693 288.167L314.48 294.038" fill="#EA6C0F"/>
<path d="M314.48 294.038L321.684 290.082V294.038L314.48 298.08V294.038Z" fill="#FF7C28"/>
<path d="M334.798 287.383L323.436 281.188L326.548 278.091L335.295 283.39" fill="#C65517"/>
<path d="M342.003 279.397L328.784 272.407L324.012 277.469L334.798 283.353" fill="#EA6C0F"/>
<path d="M334.798 283.353L342.003 279.397V283.353L334.798 287.383V283.353Z" fill="#FF7C28"/>
<path d="M271.319 321.104L259.97 314.91L263.082 311.813L271.829 317.111" fill="#C65517"/>
<path d="M278.524 313.119L265.318 306.128L260.532 311.191L271.319 317.074" fill="#EA6C0F"/>
<path d="M271.319 317.074L278.524 313.119V317.074L271.319 321.104V317.074Z" fill="#FF7C28"/>
<path d="M213.933 307.571L225.282 301.377L222.17 298.279L213.423 303.578" fill="#C65517"/>
<path d="M206.729 299.573L219.935 292.595L224.707 297.657L213.933 303.541" fill="#EA6C0F"/>
<path d="M213.933 303.541L206.729 299.573V303.541L213.933 307.571V303.541Z" fill="#FF7C28"/>
<path d="M194.582 297.172L205.931 290.978L202.819 287.868L194.072 293.179" fill="#C65517"/>
<path d="M187.378 289.174L200.584 282.196L205.369 287.259L194.582 293.142" fill="#EA6C0F"/>
<path d="M194.582 293.142L187.378 289.174V293.142L194.582 297.172V293.142Z" fill="#FF7C28"/>
<path d="M173.414 285.331L184.763 279.124L181.651 276.026L172.917 281.338" fill="#C65517"/>
<path d="M166.209 277.332L179.428 270.354L184.201 275.417L173.414 281.288" fill="#EA6C0F"/>
<path d="M173.414 281.288L166.209 277.332V281.288L173.414 285.331V281.288Z" fill="#FF7C28"/>
<path d="M236.631 320.196L247.98 314.002L244.869 310.905L236.121 316.203" fill="#C65517"/>
<path d="M229.427 312.211L242.633 305.22L247.418 310.283L236.631 316.166" fill="#EA6C0F"/>
<path d="M236.631 316.166L229.427 312.211V316.166L236.631 320.196V316.166Z" fill="#FF7C28"/>
<path d="M338.891 271.822V274.123L253.302 320.209C253.302 320.209 164.993 271.698 165.033 271.474C165.072 271.25 165.033 268.924 165.033 268.924" fill="#59E1FF"/>
<path opacity="0.25" d="M338.891 271.822V274.123L253.302 320.209C253.302 320.209 164.993 271.698 165.033 271.474C165.072 271.25 165.033 268.924 165.033 268.924" fill="black"/>
<path d="M253.054 317.323L165.033 268.911L251.864 222.428L338.891 271.822L253.054 317.323Z" fill="#59E1FF"/>
<path d="M279.073 238.287V241.434L203.722 281.363L188.319 273.34V270.093" fill="#EA6C0F"/>
<path d="M188.319 270.093L203.016 278.166L279.073 238.287L263.383 229.68L188.319 270.093Z" fill="#FF8522"/>
<path d="M280.459 234.829V237.976L205.094 277.905L189.705 269.882V266.635" fill="#EA6C0F"/>
<path d="M189.705 266.635L204.402 274.708L280.459 234.829L264.769 226.222L189.705 266.635Z" fill="#FF8522"/>
<path d="M299.038 248.835V251.982L223.674 291.911L208.285 283.888V280.641" fill="#EA6C0F"/>
<path d="M208.285 280.641L222.981 288.714L299.038 248.835L283.348 240.228L208.285 280.641Z" fill="#FF8522"/>
<path d="M300.411 245.377V248.524L225.06 288.453L209.658 280.43V277.183" fill="#EA6C0F"/>
<path d="M209.658 277.183L224.367 285.256L300.411 245.377L284.734 236.77L209.658 277.183Z" fill="#FF8522"/>
<path d="M317.082 260.117V263.264L241.731 303.193L226.328 295.17V291.923" fill="#EA6C0F"/>
<path d="M226.328 291.923L241.025 299.996L317.082 260.117L301.405 251.51L226.328 291.923Z" fill="#FF8522"/>
<path d="M317.553 256.299V259.446L242.201 299.374L226.799 291.351V288.104" fill="#EA6C0F"/>
<path d="M226.799 288.104L241.495 296.177L317.553 256.299L301.863 247.691L226.799 288.104Z" fill="#FF8522"/>
<path d="M281.426 231.036V234.183L206.075 274.111L190.673 266.088V262.841" fill="#EA6C0F"/>
<path d="M190.673 262.841L205.369 270.914L281.426 231.036L265.749 222.428L190.673 262.841Z" fill="#FF8522"/>
<path d="M282.812 227.578V230.725L207.448 270.653L192.059 262.63V259.383" fill="#EA6C0F"/>
<path d="M192.059 259.383L206.755 267.456L282.812 227.578L267.135 218.97L192.059 259.383Z" fill="#FF8522"/>
<path d="M300.856 242.181V245.328L225.505 285.256L210.102 277.233V273.986" fill="#EA6C0F"/>
<path d="M210.102 273.986L224.798 282.059L300.856 242.181L285.179 233.573L210.102 273.986Z" fill="#FF8522"/>
<path d="M302.242 238.723V241.87L226.891 281.798L211.488 273.775V270.528" fill="#EA6C0F"/>
<path d="M211.488 270.528L226.184 278.601L302.242 238.723L286.552 230.115L211.488 270.528Z" fill="#FF8522"/>
<path d="M281.426 227.578V230.725L206.075 270.653L190.673 262.63V259.383" fill="#EA6C0F"/>
<path d="M190.673 259.383L205.369 267.456L281.426 227.578L265.749 218.97L190.673 259.383Z" fill="#FF8522"/>
<path d="M302.503 239.121V242.268L227.139 282.196L211.737 274.173V270.927" fill="#EA6C0F"/>
<path d="M211.737 270.927L226.446 278.999L302.503 239.121L286.813 230.513L211.737 270.927Z" fill="#FF8522"/>
<path d="M303.876 235.663V238.81L228.525 278.738L213.122 270.715V267.469" fill="#EA6C0F"/>
<path d="M213.122 267.469L227.832 275.541L303.876 235.663L288.199 227.055L213.122 267.469Z" fill="#FF8522"/>
<path d="M143.55 246.746L171.283 231.036C171.904 230.684 172.421 230.188 172.784 229.594C173.148 229 173.346 228.328 173.361 227.64C173.375 226.953 173.205 226.274 172.867 225.666C172.528 225.059 172.032 224.544 171.426 224.169L148.467 209.952C147.303 209.22 145.939 208.83 144.544 208.83C143.149 208.83 141.785 209.22 140.622 209.952L113.334 227.366C112.742 227.746 112.259 228.262 111.932 228.866C111.604 229.47 111.442 230.143 111.46 230.822C111.479 231.502 111.677 232.166 112.036 232.753C112.396 233.34 112.905 233.832 113.517 234.183L135.235 246.621C136.478 247.358 137.909 247.76 139.374 247.781C140.839 247.803 142.283 247.445 143.55 246.746V246.746Z" fill="#B24800"/>
<path d="M143.55 244.37L171.283 228.685C171.904 228.334 172.421 227.837 172.784 227.243C173.148 226.649 173.346 225.977 173.361 225.29C173.375 224.602 173.205 223.923 172.867 223.315C172.528 222.708 172.032 222.193 171.426 221.818L148.467 207.601C147.303 206.869 145.939 206.479 144.544 206.479C143.149 206.479 141.785 206.869 140.622 207.601L113.334 225.015C112.742 225.395 112.259 225.911 111.932 226.515C111.604 227.119 111.442 227.792 111.46 228.471C111.479 229.151 111.677 229.815 112.036 230.402C112.396 230.989 112.905 231.481 113.517 231.832L135.235 244.27C136.481 245.004 137.913 245.401 139.378 245.418C140.843 245.436 142.286 245.073 143.55 244.37V244.37Z" fill="#DF5D00"/>
<path d="M138.922 181.529L124.212 225.923C124.212 225.923 120.604 237.18 142.74 236.036C164.876 234.892 161.947 224.443 161.947 224.443L147.159 181.529" fill="#FF8522"/>
<path d="M133.457 197.973C133.457 197.973 136.385 200.847 143.119 200.847C151.539 200.847 152.441 196.904 152.441 196.904L155.527 205.884C155.527 205.884 153.304 210.947 143.119 210.773C133.901 210.624 130.292 207.477 130.292 207.477" fill="white"/>
<path d="M127.978 214.865C131.977 218.548 137.344 220.578 142.91 220.512C153.854 220.388 157.972 212.975 157.972 212.975L161.228 222.428C161.228 222.428 156.534 229.356 143.027 230.289C130.292 231.16 124.827 224.381 124.827 224.381" fill="white"/>
<g style="mix-blend-mode:multiply" opacity="0.15">
<path d="M142.112 181.865H138.948L124.213 226.247C124.213 226.247 120.852 236.745 140.543 236.434C140.962 218.249 141.916 200.063 142.112 181.865Z" fill="#FF8522"/>
</g>
<path d="M143.132 184.154C145.45 184.154 147.329 183.129 147.329 181.865C147.329 180.601 145.45 179.577 143.132 179.577C140.814 179.577 138.935 180.601 138.935 181.865C138.935 183.129 140.814 184.154 143.132 184.154Z" fill="#FF9F57"/>
<path d="M224.563 239.369V245.788L231.807 249.818L244.503 242.081V235.377" fill="#FBB03B"/>
<path d="M224.563 239.369L231.794 243.387L244.503 235.377L237.521 231.508L224.563 239.369Z" fill="#D35046"/>
<path d="M296.986 217.005V222.901L330.209 241.571L387.948 209.554V203.583" fill="#59E1FF"/>
<g opacity="0.46">
<path opacity="0.46" d="M296.986 217.005V222.901L330.209 241.571L387.948 209.554V203.583" fill="#59E1FF"/>
</g>
<path d="M296.986 217.005L330.34 235.227L387.948 203.583L354.725 185.161L296.986 217.005Z" fill="#59E1FF"/>
<path d="M331.83 211.594H330.523V89.8187C330.523 83.7237 330.523 83.6864 331.177 83.7237L331.83 84.3456C331.87 84.5322 331.83 211.594 331.83 211.594Z" fill="#59E1FF"/>
<path d="M350.841 79.9672H349.534V210.176H350.841V79.9672Z" fill="#59E1FF"/>
<path d="M340.721 80.7135H339.414V214.741H340.721V80.7135Z" fill="#59E1FF"/>
<path d="M340.068 196.12L330.588 190.921L338.629 181.84L330.784 177.238L331.477 176.181L340.486 181.492L349.848 176.753L350.462 177.848L341.781 182.238L350.763 189.851L340.068 196.12ZM332.602 190.585L340.055 194.677L348.619 189.702L339.95 182.313L332.602 190.585Z" fill="#59E1FF"/>
<path d="M340.068 170.459L330.588 165.26L338.629 156.179L330.784 151.577L331.477 150.52L340.486 155.831L349.848 151.092L350.462 152.186L341.781 156.577L350.763 164.19L340.068 170.459ZM332.602 164.924L340.055 169.016L348.619 164.041L339.95 156.652L332.602 164.924Z" fill="#59E1FF"/>
<path d="M340.068 147.273L330.588 142.074L338.629 132.994L330.784 128.391L331.477 127.334L340.486 132.645L349.848 127.906L350.462 129.001L341.781 133.392L350.763 141.004L340.068 147.273ZM332.602 141.738L340.055 145.83L348.619 140.855L339.95 133.466L332.602 141.738Z" fill="#59E1FF"/>
<path d="M340.068 125.468L330.588 120.269L338.629 111.188L330.784 106.586L331.477 105.529L340.486 110.84L349.848 106.101L350.462 107.196L341.82 111.624L350.802 119.236L340.068 125.468ZM332.602 119.933L340.055 124.025L348.619 119.05L339.95 111.624L332.602 119.933Z" fill="#59E1FF"/>
<path d="M340.068 102.158L330.588 96.9585L338.629 87.8783L333.243 84.7064L333.936 83.6491L340.473 87.53L349.835 82.7908L350.449 83.8854L341.767 88.2763L350.75 95.8888L340.068 102.158ZM332.602 96.6227L340.055 100.715L348.619 95.7395L339.95 88.3509L332.602 96.6227Z" fill="#59E1FF"/>
<path d="M233.219 139.71C233.071 139.709 232.927 139.67 232.8 139.598L219.725 132.446C219.597 132.376 219.491 132.274 219.417 132.152C219.344 132.029 219.306 131.891 219.307 131.75V120.828L221.321 121.886L233.611 128.702C233.739 128.773 233.846 128.874 233.919 128.997C233.993 129.119 234.031 129.258 234.029 129.399V138.902C234.029 139.113 233.941 139.316 233.784 139.465C233.627 139.614 233.415 139.698 233.193 139.698L233.219 139.71ZM220.667 131.501L232.761 138.143V129.66L220.654 122.943L220.667 131.501Z" fill="#59E1FF"/>
<path d="M233.506 139.76L232.853 138.678L377.436 59.3811V51.0347L364.439 42.8003L239.39 111.313L243.195 124.66L219.555 121.848L219.333 120.94L219.752 120.667L364.492 41.345L378.744 50.3755V60.1648L233.506 139.76ZM221.922 120.878L241.365 123.192L238.213 111.997L221.922 120.878Z" fill="#59E1FF"/>
<path d="M377.769 50.1791L232.828 128.733L233.476 129.814L378.416 51.2599L377.769 50.1791Z" fill="#59E1FF"/>
<path d="M386.262 50.9352V63.9461L407.286 52.1542V39.1433L386.262 50.9352Z" fill="#59E1FF"/>
<path d="M386.262 63.9461L378.09 59.804V46.7807L386.262 50.9352V63.9461Z" fill="#59E1FF"/>
<path opacity="0.46" d="M386.262 50.9352V63.9461L407.286 52.1542V39.1433L386.262 50.9352Z" fill="#606060"/>
<path opacity="0.76" d="M386.262 63.9461L378.09 59.804V46.7807L386.262 50.9352V63.9461Z" fill="#606060"/>
<path d="M244.293 134.088H242.986V125.306L228.446 117.37L229.1 116.288L244.293 124.585V134.088Z" fill="#59E1FF"/>
<path d="M254.243 128.603H252.936V119.821L238.396 111.885L239.05 110.815L254.243 119.099V128.603Z" fill="#59E1FF"/>
<path d="M262.729 123.926H261.422V115.144L246.882 107.208L247.536 106.138L262.729 114.422V123.926Z" fill="#59E1FF"/>
<path d="M272.679 118.44H271.372V109.658L256.832 101.735L257.486 100.653L272.679 108.937V118.44Z" fill="#59E1FF"/>
<path d="M280.119 113.589H278.811V104.807L264.272 96.8714L264.926 95.7893L280.119 104.086V113.589Z" fill="#59E1FF"/>
<path d="M290.069 108.104H288.761V99.3219L274.222 91.386L274.863 90.3038L290.069 98.6004V108.104Z" fill="#59E1FF"/>
<path d="M299.208 102.991H297.901V94.2096L283.361 86.2737L284.015 85.1915L299.208 93.4881V102.991Z" fill="#59E1FF"/>
<path d="M309.158 97.5058H307.851V88.7241L293.311 80.7882L293.965 79.7184L309.158 88.0026V97.5058Z" fill="#59E1FF"/>
<path d="M317.984 93.3389H316.677V84.5447L302.124 76.6212L302.778 75.539L317.984 83.8357V93.3389Z" fill="#59E1FF"/>
<path d="M327.934 87.8534H326.627V79.0716L312.074 71.1357L312.728 70.0536L327.934 78.3502V87.8534Z" fill="#59E1FF"/>
<path d="M336.786 82.8033H335.478V74.5688L320.939 66.6329L321.593 65.5507L336.786 73.8474V82.8033Z" fill="#59E1FF"/>
<path d="M346.736 77.8651H345.428V69.0833L330.889 61.1474L331.53 60.0653L346.736 68.3619V77.8651Z" fill="#59E1FF"/>
<path d="M261.644 114.796L239.456 111.748L239.639 110.517L259.8 113.291L256.165 101.747L257.421 101.387L261.644 114.796Z" fill="#59E1FF"/>
<path d="M279.256 104.459L257.068 101.412L257.251 100.18L277.412 102.954L273.777 91.4109L275.033 91.0501L279.256 104.459Z" fill="#59E1FF"/>
<path d="M298.908 94.4583L276.026 91.5228L276.196 90.2914L297.077 92.9657L293.442 81.4101L294.697 81.0494L298.908 94.4583Z" fill="#59E1FF"/>
<path d="M317.147 83.8357L294.959 80.7757L295.142 79.5443L315.304 82.3181L311.669 70.775L312.924 70.4143L317.147 83.8357Z" fill="#59E1FF"/>
<path d="M335.818 74.3325L313.63 71.2725L313.813 70.0411L333.975 72.8149L330.34 61.2718L331.595 60.9235L335.818 74.3325Z" fill="#59E1FF"/>
<path d="M208.912 154.488L196.74 145.594L219.712 120.841L234.435 129.175L208.912 154.488ZM198.649 145.42L208.782 152.883L232.317 129.498L219.935 122.495L198.649 145.42Z" fill="#59E1FF"/>
<path d="M234.975 137.522L208.51 153.119L209.199 154.177L235.663 138.579L234.975 137.522Z" fill="#59E1FF"/>
<path d="M230.813 140.706C230.578 140.842 230.813 239.357 230.813 239.357Z" fill="#59E1FF"/>
<path d="M230.12 239.369C230.12 239.369 230.12 214.741 230.028 190.087C230.028 140.444 230.028 140.444 230.421 140.183L230.761 140.705L231.401 140.805C231.231 142.385 231.336 205.972 231.401 239.369H230.12Z" fill="#59E1FF"/>
<path d="M237.625 136.725C237.39 136.862 237.625 235.377 237.625 235.377Z" fill="#59E1FF"/>
<path d="M236.971 235.389C236.971 235.389 236.971 210.76 236.88 186.107C236.88 136.464 236.88 136.464 237.272 136.203L237.612 136.738L238.253 136.837C238.083 138.417 238.187 202.004 238.253 235.402L236.971 235.389Z" fill="#59E1FF"/>
<path d="M378.09 46.7683L399.664 34.8022L407.286 39.1309L386.262 50.9228L378.09 46.7683Z" fill="#59E1FF"/>
<path d="M364.623 67.9141H363.315V59.1323L348.763 51.1964L349.416 50.1143L364.623 58.4109V67.9141Z" fill="#59E1FF"/>
<path d="M353.692 64.3815L331.504 61.3216L331.7 60.0901L351.861 62.864L348.226 51.3208L349.482 50.9725L353.692 64.3815Z" fill="#59E1FF"/>
<path d="M371.16 55.0649L350.057 50.985L350.318 49.766L368.95 53.3732L363.864 42.3152L365.067 41.8176L371.16 55.0649Z" fill="#59E1FF"/>
<path d="M339.858 60.314V79.8055L348.906 84.7064V65.5259L339.858 60.314Z" fill="#59E1FF"/>
<path d="M348.906 65.5259L357.484 61.0852V80.0045L348.906 84.7064V65.5259Z" fill="#59E1FF"/>
<g opacity="0.76">
<path opacity="0.76" d="M339.858 60.314V79.8055L348.906 84.7064V65.5259L339.858 60.314Z" fill="#606060"/>
</g>
<g opacity="0.46">
<path opacity="0.46" d="M348.906 65.5259L357.484 61.0852V80.0045L348.906 84.7064V65.5259Z" fill="#606060"/>
</g>
<path d="M339.858 60.314L348.475 55.948L357.484 61.0852L348.906 65.5259L339.858 60.314Z" fill="#59E1FF"/>
<path d="M355.967 69.6431V64.7671L350.41 67.628V72.4915C352.28 71.4591 354.123 70.6879 355.967 69.6431Z" fill="#FFFEF3"/>
<path d="M341.611 69.1331V64.2571L347.154 67.118V71.9816C345.311 70.9491 343.454 70.1779 341.611 69.1331Z" fill="#FFFEF3"/>
<defs>
<linearGradient id="paint0_linear_4_2" x1="340.643" y1="196.978" x2="297.401" y2="252.172" gradientUnits="userSpaceOnUse">
<stop stop-color="#8C6239"/>
<stop offset="1" stop-color="white"/>
</linearGradient>
<linearGradient id="paint1_linear_4_2" x1="45946.2" y1="13149.3" x2="43046.3" y2="22120.4" gradientUnits="userSpaceOnUse">
<stop stop-color="#8C6239"/>
<stop offset="1" stop-color="white"/>
</linearGradient>
<linearGradient id="paint2_linear_4_2" x1="10875.5" y1="7453.11" x2="9716.36" y2="10202.1" gradientUnits="userSpaceOnUse">
<stop stop-color="#8C6239"/>
<stop offset="1" stop-color="white"/>
</linearGradient>
</defs>
</svg>
