<svg width="410" height="213" viewBox="0 0 410 213" fill="none" xmlns="http://www.w3.org/2000/svg">
<path d="M28.4419 85.0661C-5.7186 71.6398 -13.0652 -41.4482 28.4419 -107.994C106.38 -232.947 347.881 -217.469 453.007 -107.994C539.203 -18.2334 486.874 172.36 453.007 189.235C419.141 206.11 397.69 220.493 378.18 208.68C358.67 196.867 401.939 135.999 365.709 119.326C328.321 102.121 307.499 182.978 270.818 164.698C234.059 146.378 305.172 93.0947 270.818 71.6398C232.673 47.8166 204.513 139.314 163.457 119.326C125.594 100.893 181.584 45.5981 145.021 25.3425C100.482 0.667831 62.6024 98.4924 28.4419 85.0661Z" fill="white"/>
</svg>
